<svg width="30" height="30" viewBox="0 0 35 35" fill="none" xmlns="http://www.w3.org/2000/svg">
<g id="edit_square_FILL0_wght500_GRAD0_opsz40 1">
<path id="Vector" d="M6.89274 34.8066C6.13941 34.8066 5.49077 34.5346 4.94681 33.9907C4.40285 33.4467 4.13087 32.7981 4.13087 32.0448V10.8302C4.13087 10.0753 4.40285 9.42529 4.94681 8.88022C5.49077 8.33512 6.13941 8.06257 6.89274 8.06257H21.0663L18.3045 10.8302H6.89274V32.0448H28.1073V20.5654L30.8749 17.7977V32.0448C30.8749 32.7981 30.6024 33.4468 30.0573 33.9907C29.5122 34.5347 28.8622 34.8067 28.1073 34.8067L6.89274 34.8066ZM23.8282 8.73993L25.7113 10.5866L15.6311 20.628V23.3064H18.273L28.3868 13.21L30.2253 15.0393L19.3723 25.9287H13.0088V19.5652L23.8282 8.73993ZM30.2253 15.0393L23.8282 8.73993L27.3665 5.20744C27.9061 4.66779 28.5622 4.3999 29.3348 4.40379C30.1075 4.40765 30.7626 4.68752 31.3003 5.24339L33.7144 7.69113C34.2344 8.24082 34.4944 8.8913 34.4944 9.64256C34.4944 10.3938 34.2224 11.0355 33.6785 11.5676L30.2253 15.0393Z" fill="#919191"/>
</g>
</svg>
