<svg width="30" height="30" viewBox="0 0 35 35" fill="none" xmlns="http://www.w3.org/2000/svg">
<g id="search_FILL0_wght400_GRAD0_opsz48 1">
<path id="Vector" d="M29.0208 30.5885L19.4323 21C18.7031 21.6319 17.8529 22.1241 16.8817 22.4766C15.9105 22.829 14.877 23.0052 13.7812 23.0052C11.1523 23.0052 8.92737 22.0937 7.10642 20.2708C5.28547 18.4479 4.375 16.2483 4.375 13.6719C4.375 11.0955 5.28646 8.89582 7.10938 7.07291C8.93229 5.24999 11.138 4.33853 13.7266 4.33853C16.3151 4.33853 18.5148 5.24999 20.3255 7.07291C22.1363 8.89582 23.0417 11.0973 23.0417 13.6773C23.0417 14.7188 22.8715 15.7257 22.5312 16.6979C22.191 17.6701 21.6806 18.5816 21 19.4323L30.625 28.9844L29.0208 30.5885ZM13.7448 20.8177C15.7196 20.8177 17.3982 20.1189 18.7806 18.7213C20.163 17.3238 20.8542 15.6406 20.8542 13.6719C20.8542 11.7031 20.163 10.02 18.7806 8.62239C17.3982 7.22482 15.7196 6.52603 13.7448 6.52603C11.7497 6.52603 10.0539 7.22482 8.65732 8.62239C7.26077 10.02 6.5625 11.7031 6.5625 13.6719C6.5625 15.6406 7.26077 17.3238 8.65732 18.7213C10.0539 20.1189 11.7497 20.8177 13.7448 20.8177Z" fill="#919191"/>
</g>
</svg>
